<svg width="56" height="56" viewBox="0 0 56 56" fill="none" xmlns="http://www.w3.org/2000/svg">
<rect x="4" y="4" width="48" height="48" rx="24" fill="#043867"/>
<rect opacity="0.25" width="56" height="56" rx="28" fill="#043867"/>
<path d="M39.25 35.5H38.5V28C38.5 27.6022 38.342 27.2206 38.0607 26.9393C37.7794 26.658 37.3978 26.5 37 26.5H31.75V20.5C31.75 20.1022 31.592 19.7206 31.3107 19.4393C31.0294 19.158 30.6478 19 30.25 19H21.25C20.8522 19 20.4706 19.158 20.1893 19.4393C19.908 19.7206 19.75 20.1022 19.75 20.5V35.5H19C18.8011 35.5 18.6103 35.579 18.4697 35.7197C18.329 35.8603 18.25 36.0511 18.25 36.25C18.25 36.4489 18.329 36.6397 18.4697 36.7803C18.6103 36.921 18.8011 37 19 37H39.25C39.4489 37 39.6397 36.921 39.7803 36.7803C39.921 36.6397 40 36.4489 40 36.25C40 36.0511 39.921 35.8603 39.7803 35.7197C39.6397 35.579 39.4489 35.5 39.25 35.5ZM28 35.5H23.5V31H28V35.5ZM28 25.75H26.5V27.25C26.5 27.4489 26.421 27.6397 26.2803 27.7803C26.1397 27.921 25.9489 28 25.75 28C25.5511 28 25.3603 27.921 25.2197 27.7803C25.079 27.6397 25 27.4489 25 27.25V25.75H23.5C23.3011 25.75 23.1103 25.671 22.9697 25.5303C22.829 25.3897 22.75 25.1989 22.75 25C22.75 24.8011 22.829 24.6103 22.9697 24.4697C23.1103 24.329 23.3011 24.25 23.5 24.25H25V22.75C25 22.5511 25.079 22.3603 25.2197 22.2197C25.3603 22.079 25.5511 22 25.75 22C25.9489 22 26.1397 22.079 26.2803 22.2197C26.421 22.3603 26.5 22.5511 26.5 22.75V24.25H28C28.1989 24.25 28.3897 24.329 28.5303 24.4697C28.671 24.6103 28.75 24.8011 28.75 25C28.75 25.1989 28.671 25.3897 28.5303 25.5303C28.3897 25.671 28.1989 25.75 28 25.75ZM37 35.5H31.75V28H37V35.5Z" fill="white"/>
</svg>
