<svg width="56" height="56" viewBox="0 0 56 56" fill="none" xmlns="http://www.w3.org/2000/svg">
<rect x="4" y="4" width="48" height="48" rx="24" fill="#B60000"/>
<rect opacity="0.25" width="56" height="56" rx="28" fill="#B60000"/>
<path d="M31.32 19H24.68C24.42 19 24.16 19.11 23.98 19.29L19.29 23.98C19.11 24.16 19 24.42 19 24.68V31.31C19 31.58 19.11 31.83 19.29 32.02L23.97 36.7C24.16 36.89 24.42 37 24.68 37H31.31C31.58 37 31.83 36.89 32.02 36.71L36.7 32.03C36.7931 31.9369 36.8668 31.8261 36.9165 31.7042C36.9663 31.5823 36.9913 31.4517 36.99 31.32V24.68C36.99 24.41 36.88 24.16 36.7 23.97L32.02 19.29C31.84 19.11 31.58 19 31.32 19ZM28 33.3C27.28 33.3 26.7 32.72 26.7 32C26.7 31.28 27.28 30.7 28 30.7C28.72 30.7 29.3 31.28 29.3 32C29.3 32.72 28.72 33.3 28 33.3ZM28 29C27.45 29 27 28.55 27 28V24C27 23.45 27.45 23 28 23C28.55 23 29 23.45 29 24V28C29 28.55 28.55 29 28 29Z" fill="white"/>
</svg>
